%
M48
M72
T01C0.0400
%
T01
X654Y762
X654Y1762
X654Y2762
X654Y3762
X654Y4762
X654Y5762
X654Y6762
X654Y7762
X654Y8762
X654Y9762
X654Y10762
X654Y11762
X654Y12762
X654Y13762
X8654Y13762
X8654Y12762
X8654Y11762
X8654Y10762
X8654Y9762
X8654Y8762
X8654Y7762
X8654Y6762
X8654Y5762
X8654Y4762
X8654Y3762
X8654Y2762
X8654Y1762
X8654Y762
M30
