G75*
%MOIN*%
%OFA0B0*%
%FSLAX25Y25*%
%IPPOS*%
%LPD*%
%AMOC8*
5,1,8,0,0,1.08239X$1,22.5*
%
%ADD10C,0.07800*%
%ADD11R,0.05918X0.06706*%
D10*
X0006536Y0007623D03*
X0006536Y0017623D03*
X0006536Y0027623D03*
X0006536Y0037623D03*
X0006536Y0047623D03*
X0006536Y0057623D03*
X0006536Y0067623D03*
X0006536Y0077623D03*
X0006536Y0087623D03*
X0006536Y0097623D03*
X0006536Y0107623D03*
X0006536Y0117623D03*
X0006536Y0127623D03*
X0006536Y0137623D03*
X0086536Y0137623D03*
X0086536Y0127623D03*
X0086536Y0117623D03*
X0086536Y0107623D03*
X0086536Y0097623D03*
X0086536Y0087623D03*
X0086536Y0077623D03*
X0086536Y0067623D03*
X0086536Y0057623D03*
X0086536Y0047623D03*
X0086536Y0037623D03*
X0086536Y0027623D03*
X0086536Y0017623D03*
X0086536Y0007623D03*
D11*
X0080276Y0007623D03*
X0080276Y0017623D03*
X0080276Y0027623D03*
X0080276Y0037623D03*
X0080276Y0047623D03*
X0080276Y0057623D03*
X0080276Y0067623D03*
X0080276Y0077623D03*
X0080276Y0087623D03*
X0080276Y0097623D03*
X0080276Y0107623D03*
X0080276Y0117623D03*
X0080276Y0127623D03*
X0080276Y0137623D03*
X0072795Y0137623D03*
X0072795Y0127623D03*
X0072795Y0117623D03*
X0072795Y0107623D03*
X0072795Y0097623D03*
X0072795Y0087623D03*
X0072795Y0077623D03*
X0072795Y0067623D03*
X0072795Y0057623D03*
X0072795Y0047623D03*
X0072795Y0037623D03*
X0072795Y0027623D03*
X0072795Y0017623D03*
X0072795Y0007623D03*
X0020276Y0007623D03*
X0020276Y0017623D03*
X0020276Y0027623D03*
X0020276Y0037623D03*
X0020276Y0047623D03*
X0020276Y0057623D03*
X0020276Y0067623D03*
X0020276Y0077623D03*
X0020276Y0087623D03*
X0020276Y0097623D03*
X0020276Y0107623D03*
X0020276Y0117623D03*
X0020276Y0127623D03*
X0020276Y0137623D03*
X0012795Y0137623D03*
X0012795Y0127623D03*
X0012795Y0117623D03*
X0012795Y0107623D03*
X0012795Y0097623D03*
X0012795Y0087623D03*
X0012795Y0077623D03*
X0012795Y0067623D03*
X0012795Y0057623D03*
X0012795Y0047623D03*
X0012795Y0037623D03*
X0012795Y0027623D03*
X0012795Y0017623D03*
X0012795Y0007623D03*
M02*
