G75*
%MOIN*%
%OFA0B0*%
%FSLAX25Y25*%
%IPPOS*%
%LPD*%
%AMOC8*
5,1,8,0,0,1.08239X$1,22.5*
%
%ADD10C,0.00000*%
%ADD11C,0.00800*%
%ADD12C,0.00500*%
%ADD13R,0.04134X0.01181*%
%ADD14R,0.05709X0.01181*%
D10*
X0001036Y0006123D02*
X0001036Y0141123D01*
X0001021Y0141240D01*
X0001010Y0141358D01*
X0001003Y0141476D01*
X0001000Y0141594D01*
X0001001Y0141712D01*
X0001006Y0141830D01*
X0001015Y0141948D01*
X0001028Y0142066D01*
X0001045Y0142182D01*
X0001065Y0142299D01*
X0001090Y0142414D01*
X0001118Y0142529D01*
X0001150Y0142643D01*
X0001186Y0142755D01*
X0001226Y0142867D01*
X0001269Y0142977D01*
X0001316Y0143085D01*
X0001367Y0143192D01*
X0001421Y0143297D01*
X0001479Y0143400D01*
X0001540Y0143501D01*
X0001604Y0143600D01*
X0001672Y0143697D01*
X0001743Y0143792D01*
X0001817Y0143884D01*
X0001894Y0143973D01*
X0001974Y0144060D01*
X0002057Y0144144D01*
X0002143Y0144226D01*
X0002231Y0144304D01*
X0002322Y0144380D01*
X0002415Y0144452D01*
X0002511Y0144522D01*
X0002609Y0144588D01*
X0002709Y0144650D01*
X0002811Y0144710D01*
X0002915Y0144766D01*
X0003021Y0144818D01*
X0003129Y0144867D01*
X0003238Y0144912D01*
X0003349Y0144954D01*
X0003461Y0144992D01*
X0003574Y0145026D01*
X0003688Y0145056D01*
X0003803Y0145082D01*
X0003919Y0145105D01*
X0004036Y0145123D01*
X0088036Y0145123D01*
X0088182Y0145108D01*
X0088328Y0145089D01*
X0088473Y0145066D01*
X0088618Y0145039D01*
X0088762Y0145008D01*
X0088905Y0144974D01*
X0089047Y0144935D01*
X0089187Y0144893D01*
X0089327Y0144848D01*
X0089466Y0144798D01*
X0089603Y0144745D01*
X0089738Y0144688D01*
X0089872Y0144628D01*
X0090005Y0144564D01*
X0090135Y0144496D01*
X0090264Y0144425D01*
X0090391Y0144351D01*
X0090516Y0144273D01*
X0090639Y0144192D01*
X0090759Y0144108D01*
X0090877Y0144021D01*
X0090993Y0143930D01*
X0091107Y0143837D01*
X0091218Y0143740D01*
X0091326Y0143641D01*
X0091431Y0143538D01*
X0091534Y0143433D01*
X0091634Y0143325D01*
X0091731Y0143215D01*
X0091826Y0143102D01*
X0091917Y0142987D01*
X0092005Y0142869D01*
X0092089Y0142749D01*
X0092171Y0142626D01*
X0092249Y0142502D01*
X0092324Y0142375D01*
X0092396Y0142247D01*
X0092464Y0142117D01*
X0092529Y0141985D01*
X0092590Y0141851D01*
X0092647Y0141715D01*
X0092701Y0141579D01*
X0092751Y0141440D01*
X0092798Y0141301D01*
X0092841Y0141160D01*
X0092880Y0141019D01*
X0092915Y0140876D01*
X0092946Y0140732D01*
X0092974Y0140588D01*
X0092998Y0140443D01*
X0093018Y0140297D01*
X0093034Y0140151D01*
X0093046Y0140004D01*
X0093054Y0139857D01*
X0093058Y0139710D01*
X0093059Y0139563D01*
X0093055Y0139416D01*
X0093048Y0139270D01*
X0093036Y0139123D01*
X0093036Y0004123D01*
X0093003Y0004000D01*
X0092967Y0003879D01*
X0092927Y0003758D01*
X0092883Y0003639D01*
X0092835Y0003521D01*
X0092784Y0003405D01*
X0092729Y0003290D01*
X0092671Y0003178D01*
X0092610Y0003067D01*
X0092545Y0002958D01*
X0092476Y0002850D01*
X0092405Y0002746D01*
X0092330Y0002643D01*
X0092252Y0002543D01*
X0092171Y0002445D01*
X0092087Y0002350D01*
X0092000Y0002257D01*
X0091910Y0002167D01*
X0091818Y0002080D01*
X0091723Y0001996D01*
X0091625Y0001915D01*
X0091525Y0001836D01*
X0091423Y0001761D01*
X0091318Y0001689D01*
X0091211Y0001621D01*
X0091103Y0001555D01*
X0090992Y0001493D01*
X0090879Y0001435D01*
X0090765Y0001380D01*
X0090648Y0001328D01*
X0090531Y0001281D01*
X0090412Y0001236D01*
X0090291Y0001196D01*
X0090170Y0001159D01*
X0090047Y0001126D01*
X0089924Y0001097D01*
X0089799Y0001071D01*
X0089674Y0001050D01*
X0089548Y0001032D01*
X0089422Y0001018D01*
X0089296Y0001008D01*
X0089169Y0001002D01*
X0089042Y0001000D01*
X0088915Y0001002D01*
X0088788Y0001007D01*
X0088661Y0001017D01*
X0088535Y0001031D01*
X0088409Y0001048D01*
X0088284Y0001069D01*
X0088160Y0001094D01*
X0088036Y0001123D01*
X0005036Y0001123D01*
X0004903Y0001139D01*
X0004770Y0001160D01*
X0004638Y0001185D01*
X0004507Y0001213D01*
X0004377Y0001246D01*
X0004248Y0001282D01*
X0004120Y0001322D01*
X0003993Y0001366D01*
X0003867Y0001414D01*
X0003743Y0001465D01*
X0003621Y0001520D01*
X0003500Y0001578D01*
X0003381Y0001641D01*
X0003264Y0001706D01*
X0003149Y0001775D01*
X0003036Y0001848D01*
X0002925Y0001923D01*
X0002817Y0002002D01*
X0002711Y0002084D01*
X0002607Y0002170D01*
X0002506Y0002258D01*
X0002408Y0002349D01*
X0002312Y0002443D01*
X0002219Y0002540D01*
X0002129Y0002640D01*
X0002043Y0002742D01*
X0001959Y0002847D01*
X0001878Y0002954D01*
X0001801Y0003064D01*
X0001726Y0003176D01*
X0001655Y0003290D01*
X0001588Y0003406D01*
X0001524Y0003524D01*
X0001464Y0003643D01*
X0001407Y0003765D01*
X0001354Y0003888D01*
X0001304Y0004013D01*
X0001258Y0004139D01*
X0001216Y0004266D01*
X0001178Y0004395D01*
X0001143Y0004525D01*
X0001113Y0004655D01*
X0001086Y0004787D01*
X0001063Y0004919D01*
X0001044Y0005052D01*
X0001029Y0005185D01*
X0001018Y0005319D01*
X0001011Y0005453D01*
X0001008Y0005587D01*
X0001009Y0005721D01*
X0001014Y0005856D01*
X0001023Y0005989D01*
X0001036Y0006123D01*
D11*
X0011779Y0005223D02*
X0014982Y0005223D01*
X0013380Y0005223D02*
X0013380Y0010027D01*
X0011779Y0008426D01*
X0011779Y0015223D02*
X0014982Y0015223D01*
X0013380Y0015223D02*
X0013380Y0020027D01*
X0011779Y0018426D01*
X0011779Y0025223D02*
X0014982Y0025223D01*
X0013380Y0025223D02*
X0013380Y0030027D01*
X0011779Y0028426D01*
X0011779Y0035223D02*
X0014982Y0035223D01*
X0013380Y0035223D02*
X0013380Y0040027D01*
X0011779Y0038426D01*
X0011779Y0045223D02*
X0014982Y0045223D01*
X0013380Y0045223D02*
X0013380Y0050027D01*
X0011779Y0048426D01*
X0012658Y0055223D02*
X0014259Y0055223D01*
X0015060Y0056024D01*
X0015060Y0059227D01*
X0014259Y0060027D01*
X0012658Y0060027D01*
X0011857Y0059227D01*
X0011857Y0058426D01*
X0012658Y0057625D01*
X0015060Y0057625D01*
X0012658Y0055223D02*
X0011857Y0056024D01*
X0017736Y0050027D02*
X0016936Y0049227D01*
X0016936Y0046024D01*
X0020138Y0049227D01*
X0020138Y0046024D01*
X0019338Y0045223D01*
X0017736Y0045223D01*
X0016936Y0046024D01*
X0017736Y0050027D02*
X0019338Y0050027D01*
X0020138Y0049227D01*
X0018537Y0040027D02*
X0018537Y0035223D01*
X0016936Y0035223D02*
X0020138Y0035223D01*
X0016936Y0038426D02*
X0018537Y0040027D01*
X0019338Y0030027D02*
X0017736Y0030027D01*
X0016936Y0029227D01*
X0019338Y0030027D02*
X0020138Y0029227D01*
X0020138Y0028426D01*
X0016936Y0025223D01*
X0020138Y0025223D01*
X0019338Y0020027D02*
X0017736Y0020027D01*
X0016936Y0019227D01*
X0018537Y0017625D02*
X0019338Y0017625D01*
X0020138Y0016824D01*
X0020138Y0016024D01*
X0019338Y0015223D01*
X0017736Y0015223D01*
X0016936Y0016024D01*
X0019338Y0017625D02*
X0020138Y0018426D01*
X0020138Y0019227D01*
X0019338Y0020027D01*
X0019338Y0010027D02*
X0016936Y0007625D01*
X0020138Y0007625D01*
X0019338Y0005223D02*
X0019338Y0010027D01*
X0014259Y0065223D02*
X0012658Y0065223D01*
X0011857Y0066024D01*
X0011857Y0066824D01*
X0012658Y0067625D01*
X0014259Y0067625D01*
X0015060Y0066824D01*
X0015060Y0066024D01*
X0014259Y0065223D01*
X0014259Y0067625D02*
X0015060Y0068426D01*
X0015060Y0069227D01*
X0014259Y0070027D01*
X0012658Y0070027D01*
X0011857Y0069227D01*
X0011857Y0068426D01*
X0012658Y0067625D01*
X0011857Y0075223D02*
X0011857Y0076024D01*
X0015060Y0079227D01*
X0015060Y0080027D01*
X0011857Y0080027D01*
X0012658Y0085223D02*
X0014259Y0085223D01*
X0015060Y0086024D01*
X0015060Y0086824D01*
X0014259Y0087625D01*
X0011857Y0087625D01*
X0011857Y0086024D01*
X0012658Y0085223D01*
X0011857Y0087625D02*
X0013459Y0089227D01*
X0015060Y0090027D01*
X0014259Y0095223D02*
X0012658Y0095223D01*
X0011857Y0096024D01*
X0011857Y0097625D02*
X0013459Y0098426D01*
X0014259Y0098426D01*
X0015060Y0097625D01*
X0015060Y0096024D01*
X0014259Y0095223D01*
X0011857Y0097625D02*
X0011857Y0100027D01*
X0015060Y0100027D01*
X0014259Y0105223D02*
X0014259Y0110027D01*
X0011857Y0107625D01*
X0015060Y0107625D01*
X0014259Y0115223D02*
X0012658Y0115223D01*
X0011857Y0116024D01*
X0013459Y0117625D02*
X0014259Y0117625D01*
X0015060Y0116824D01*
X0015060Y0116024D01*
X0014259Y0115223D01*
X0014259Y0117625D02*
X0015060Y0118426D01*
X0015060Y0119227D01*
X0014259Y0120027D01*
X0012658Y0120027D01*
X0011857Y0119227D01*
X0011857Y0125223D02*
X0015060Y0128426D01*
X0015060Y0129227D01*
X0014259Y0130027D01*
X0012658Y0130027D01*
X0011857Y0129227D01*
X0011857Y0125223D02*
X0015060Y0125223D01*
X0015060Y0135223D02*
X0011857Y0135223D01*
X0013459Y0135223D02*
X0013459Y0140027D01*
X0011857Y0138426D01*
X0071779Y0139227D02*
X0072580Y0140027D01*
X0074181Y0140027D01*
X0074982Y0139227D01*
X0074982Y0138426D01*
X0071779Y0135223D01*
X0074982Y0135223D01*
X0076936Y0136024D02*
X0076936Y0136824D01*
X0077736Y0137625D01*
X0079338Y0137625D01*
X0080138Y0136824D01*
X0080138Y0136024D01*
X0079338Y0135223D01*
X0077736Y0135223D01*
X0076936Y0136024D01*
X0077736Y0137625D02*
X0076936Y0138426D01*
X0076936Y0139227D01*
X0077736Y0140027D01*
X0079338Y0140027D01*
X0080138Y0139227D01*
X0080138Y0138426D01*
X0079338Y0137625D01*
X0080138Y0130027D02*
X0076936Y0130027D01*
X0074982Y0129227D02*
X0074181Y0130027D01*
X0072580Y0130027D01*
X0071779Y0129227D01*
X0074982Y0128426D02*
X0071779Y0125223D01*
X0074982Y0125223D01*
X0076936Y0125223D02*
X0076936Y0126024D01*
X0080138Y0129227D01*
X0080138Y0130027D01*
X0074982Y0129227D02*
X0074982Y0128426D01*
X0074181Y0120027D02*
X0072580Y0120027D01*
X0071779Y0119227D01*
X0074181Y0120027D02*
X0074982Y0119227D01*
X0074982Y0118426D01*
X0071779Y0115223D01*
X0074982Y0115223D01*
X0076936Y0116024D02*
X0076936Y0117625D01*
X0079338Y0117625D01*
X0080138Y0116824D01*
X0080138Y0116024D01*
X0079338Y0115223D01*
X0077736Y0115223D01*
X0076936Y0116024D01*
X0076936Y0117625D02*
X0078537Y0119227D01*
X0080138Y0120027D01*
X0080138Y0110027D02*
X0076936Y0110027D01*
X0076936Y0107625D01*
X0078537Y0108426D01*
X0079338Y0108426D01*
X0080138Y0107625D01*
X0080138Y0106024D01*
X0079338Y0105223D01*
X0077736Y0105223D01*
X0076936Y0106024D01*
X0074982Y0105223D02*
X0071779Y0105223D01*
X0074982Y0108426D01*
X0074982Y0109227D01*
X0074181Y0110027D01*
X0072580Y0110027D01*
X0071779Y0109227D01*
X0072580Y0100027D02*
X0071779Y0099227D01*
X0072580Y0100027D02*
X0074181Y0100027D01*
X0074982Y0099227D01*
X0074982Y0098426D01*
X0071779Y0095223D01*
X0074982Y0095223D01*
X0076936Y0097625D02*
X0080138Y0097625D01*
X0079338Y0095223D02*
X0079338Y0100027D01*
X0076936Y0097625D01*
X0077736Y0090027D02*
X0076936Y0089227D01*
X0077736Y0090027D02*
X0079338Y0090027D01*
X0080138Y0089227D01*
X0080138Y0088426D01*
X0079338Y0087625D01*
X0080138Y0086824D01*
X0080138Y0086024D01*
X0079338Y0085223D01*
X0077736Y0085223D01*
X0076936Y0086024D01*
X0074982Y0085223D02*
X0071779Y0085223D01*
X0074982Y0088426D01*
X0074982Y0089227D01*
X0074181Y0090027D01*
X0072580Y0090027D01*
X0071779Y0089227D01*
X0072580Y0080027D02*
X0071779Y0079227D01*
X0072580Y0080027D02*
X0074181Y0080027D01*
X0074982Y0079227D01*
X0074982Y0078426D01*
X0071779Y0075223D01*
X0074982Y0075223D01*
X0076936Y0075223D02*
X0080138Y0078426D01*
X0080138Y0079227D01*
X0079338Y0080027D01*
X0077736Y0080027D01*
X0076936Y0079227D01*
X0076936Y0075223D02*
X0080138Y0075223D01*
X0078537Y0070027D02*
X0078537Y0065223D01*
X0076936Y0065223D02*
X0080138Y0065223D01*
X0076936Y0068426D02*
X0078537Y0070027D01*
X0074982Y0069227D02*
X0074982Y0068426D01*
X0071779Y0065223D01*
X0074982Y0065223D01*
X0074982Y0069227D02*
X0074181Y0070027D01*
X0072580Y0070027D01*
X0071779Y0069227D01*
X0072580Y0060027D02*
X0071779Y0059227D01*
X0072580Y0060027D02*
X0074181Y0060027D01*
X0074982Y0059227D01*
X0074982Y0058426D01*
X0071779Y0055223D01*
X0074982Y0055223D01*
X0076936Y0056024D02*
X0080138Y0059227D01*
X0080138Y0056024D01*
X0079338Y0055223D01*
X0077736Y0055223D01*
X0076936Y0056024D01*
X0076936Y0059227D01*
X0077736Y0060027D01*
X0079338Y0060027D01*
X0080138Y0059227D01*
X0079338Y0050027D02*
X0077736Y0050027D01*
X0076936Y0049227D01*
X0076936Y0048426D01*
X0077736Y0047625D01*
X0080138Y0047625D01*
X0080138Y0046024D02*
X0079338Y0045223D01*
X0077736Y0045223D01*
X0076936Y0046024D01*
X0074982Y0045223D02*
X0071779Y0045223D01*
X0073380Y0045223D02*
X0073380Y0050027D01*
X0071779Y0048426D01*
X0073380Y0040027D02*
X0073380Y0035223D01*
X0071779Y0035223D02*
X0074982Y0035223D01*
X0076936Y0036024D02*
X0076936Y0036824D01*
X0077736Y0037625D01*
X0079338Y0037625D01*
X0080138Y0036824D01*
X0080138Y0036024D01*
X0079338Y0035223D01*
X0077736Y0035223D01*
X0076936Y0036024D01*
X0077736Y0037625D02*
X0076936Y0038426D01*
X0076936Y0039227D01*
X0077736Y0040027D01*
X0079338Y0040027D01*
X0080138Y0039227D01*
X0080138Y0038426D01*
X0079338Y0037625D01*
X0080138Y0046024D02*
X0080138Y0049227D01*
X0079338Y0050027D01*
X0073380Y0040027D02*
X0071779Y0038426D01*
X0073380Y0030027D02*
X0073380Y0025223D01*
X0071779Y0025223D02*
X0074982Y0025223D01*
X0076936Y0025223D02*
X0076936Y0026024D01*
X0080138Y0029227D01*
X0080138Y0030027D01*
X0076936Y0030027D01*
X0073380Y0030027D02*
X0071779Y0028426D01*
X0073380Y0020027D02*
X0073380Y0015223D01*
X0071779Y0015223D02*
X0074982Y0015223D01*
X0076936Y0016024D02*
X0077736Y0015223D01*
X0079338Y0015223D01*
X0080138Y0016024D01*
X0080138Y0016824D01*
X0079338Y0017625D01*
X0076936Y0017625D01*
X0076936Y0016024D01*
X0076936Y0017625D02*
X0078537Y0019227D01*
X0080138Y0020027D01*
X0073380Y0020027D02*
X0071779Y0018426D01*
X0073380Y0010027D02*
X0073380Y0005223D01*
X0071779Y0005223D02*
X0074982Y0005223D01*
X0076936Y0006024D02*
X0077736Y0005223D01*
X0079338Y0005223D01*
X0080138Y0006024D01*
X0080138Y0007625D01*
X0079338Y0008426D01*
X0078537Y0008426D01*
X0076936Y0007625D01*
X0076936Y0010027D01*
X0080138Y0010027D01*
X0073380Y0010027D02*
X0071779Y0008426D01*
X0078537Y0087625D02*
X0079338Y0087625D01*
D12*
X0057469Y0091521D02*
X0057469Y0053725D01*
X0036602Y0053725D01*
X0036602Y0091521D01*
X0057469Y0091521D01*
X0054713Y0091521D02*
X0054713Y0053725D01*
X0039358Y0053725D01*
X0039358Y0091521D01*
X0054713Y0091521D01*
X0041326Y0089139D02*
X0041328Y0089210D01*
X0041334Y0089281D01*
X0041344Y0089352D01*
X0041358Y0089421D01*
X0041375Y0089490D01*
X0041397Y0089558D01*
X0041422Y0089625D01*
X0041451Y0089690D01*
X0041483Y0089753D01*
X0041519Y0089815D01*
X0041558Y0089874D01*
X0041601Y0089931D01*
X0041646Y0089986D01*
X0041695Y0090038D01*
X0041746Y0090087D01*
X0041800Y0090133D01*
X0041857Y0090177D01*
X0041915Y0090217D01*
X0041976Y0090253D01*
X0042039Y0090287D01*
X0042104Y0090316D01*
X0042170Y0090342D01*
X0042238Y0090365D01*
X0042306Y0090383D01*
X0042376Y0090398D01*
X0042446Y0090409D01*
X0042517Y0090416D01*
X0042588Y0090419D01*
X0042659Y0090418D01*
X0042730Y0090413D01*
X0042801Y0090404D01*
X0042871Y0090391D01*
X0042940Y0090375D01*
X0043008Y0090354D01*
X0043075Y0090330D01*
X0043141Y0090302D01*
X0043204Y0090270D01*
X0043266Y0090235D01*
X0043326Y0090197D01*
X0043384Y0090155D01*
X0043439Y0090111D01*
X0043492Y0090063D01*
X0043542Y0090012D01*
X0043589Y0089959D01*
X0043633Y0089903D01*
X0043674Y0089845D01*
X0043712Y0089784D01*
X0043746Y0089722D01*
X0043776Y0089657D01*
X0043803Y0089592D01*
X0043827Y0089524D01*
X0043846Y0089456D01*
X0043862Y0089387D01*
X0043874Y0089316D01*
X0043882Y0089246D01*
X0043886Y0089175D01*
X0043886Y0089103D01*
X0043882Y0089032D01*
X0043874Y0088962D01*
X0043862Y0088891D01*
X0043846Y0088822D01*
X0043827Y0088754D01*
X0043803Y0088686D01*
X0043776Y0088621D01*
X0043746Y0088556D01*
X0043712Y0088494D01*
X0043674Y0088433D01*
X0043633Y0088375D01*
X0043589Y0088319D01*
X0043542Y0088266D01*
X0043492Y0088215D01*
X0043439Y0088167D01*
X0043384Y0088123D01*
X0043326Y0088081D01*
X0043266Y0088043D01*
X0043204Y0088008D01*
X0043141Y0087976D01*
X0043075Y0087948D01*
X0043008Y0087924D01*
X0042940Y0087903D01*
X0042871Y0087887D01*
X0042801Y0087874D01*
X0042730Y0087865D01*
X0042659Y0087860D01*
X0042588Y0087859D01*
X0042517Y0087862D01*
X0042446Y0087869D01*
X0042376Y0087880D01*
X0042306Y0087895D01*
X0042238Y0087913D01*
X0042170Y0087936D01*
X0042104Y0087962D01*
X0042039Y0087991D01*
X0041976Y0088025D01*
X0041915Y0088061D01*
X0041857Y0088101D01*
X0041800Y0088145D01*
X0041746Y0088191D01*
X0041695Y0088240D01*
X0041646Y0088292D01*
X0041601Y0088347D01*
X0041558Y0088404D01*
X0041519Y0088463D01*
X0041483Y0088525D01*
X0041451Y0088588D01*
X0041422Y0088653D01*
X0041397Y0088720D01*
X0041375Y0088788D01*
X0041358Y0088857D01*
X0041344Y0088926D01*
X0041334Y0088997D01*
X0041328Y0089068D01*
X0041326Y0089139D01*
D13*
X0037291Y0089257D03*
X0037291Y0086698D03*
X0037291Y0084139D03*
X0037291Y0081580D03*
X0037291Y0079021D03*
X0037291Y0076462D03*
X0037291Y0073903D03*
X0037291Y0071344D03*
X0037291Y0068785D03*
X0037291Y0066225D03*
X0037291Y0063666D03*
X0037291Y0061107D03*
X0037291Y0058548D03*
X0037291Y0055989D03*
X0056780Y0055989D03*
X0056780Y0058548D03*
X0056780Y0061107D03*
X0056780Y0063666D03*
X0056780Y0066225D03*
X0056780Y0068785D03*
X0056780Y0071344D03*
X0056780Y0073903D03*
X0056780Y0076462D03*
X0056780Y0079021D03*
X0056780Y0081580D03*
X0056780Y0084139D03*
X0056780Y0086698D03*
X0056780Y0089257D03*
D14*
X0060323Y0089257D03*
X0060323Y0086698D03*
X0060323Y0084139D03*
X0060323Y0081580D03*
X0060323Y0079021D03*
X0060323Y0076462D03*
X0060323Y0073903D03*
X0060323Y0071344D03*
X0060323Y0068785D03*
X0060323Y0066225D03*
X0060323Y0063666D03*
X0060323Y0061107D03*
X0060323Y0058548D03*
X0060323Y0055989D03*
X0033748Y0055989D03*
X0033748Y0058548D03*
X0033748Y0061107D03*
X0033748Y0063666D03*
X0033748Y0066225D03*
X0033748Y0068785D03*
X0033748Y0071344D03*
X0033748Y0073903D03*
X0033748Y0076462D03*
X0033748Y0079021D03*
X0033748Y0081580D03*
X0033748Y0084139D03*
X0033748Y0086698D03*
X0033748Y0089257D03*
M02*
