G75*
%MOIN*%
%OFA0B0*%
%FSLAX25Y25*%
%IPPOS*%
%LPD*%
%AMOC8*
5,1,8,0,0,1.08239X$1,22.5*
%
%ADD10C,0.01100*%
%ADD11R,0.10249X0.02178*%
%ADD12C,0.07800*%
D10*
X0031472Y0012578D02*
X0035408Y0012578D01*
X0033440Y0012578D02*
X0033440Y0006673D01*
X0037917Y0007657D02*
X0038901Y0006673D01*
X0040870Y0006673D01*
X0041854Y0007657D01*
X0041854Y0008641D01*
X0040870Y0009626D01*
X0038901Y0009626D01*
X0037917Y0010610D01*
X0037917Y0011594D01*
X0038901Y0012578D01*
X0040870Y0012578D01*
X0041854Y0011594D01*
X0044363Y0011594D02*
X0044363Y0010610D01*
X0045347Y0009626D01*
X0047315Y0009626D01*
X0048299Y0008641D01*
X0048299Y0007657D01*
X0047315Y0006673D01*
X0045347Y0006673D01*
X0044363Y0007657D01*
X0044363Y0011594D02*
X0045347Y0012578D01*
X0047315Y0012578D01*
X0048299Y0011594D01*
X0050808Y0011594D02*
X0050808Y0007657D01*
X0051792Y0006673D01*
X0053761Y0006673D01*
X0054745Y0007657D01*
X0054745Y0011594D01*
X0053761Y0012578D01*
X0051792Y0012578D01*
X0050808Y0011594D01*
X0049734Y0017173D02*
X0049734Y0023078D01*
X0053671Y0017173D01*
X0053671Y0023078D01*
X0050538Y0027673D02*
X0051522Y0028657D01*
X0051522Y0029641D01*
X0050538Y0030626D01*
X0048570Y0030626D01*
X0047586Y0031610D01*
X0047586Y0032594D01*
X0048570Y0033578D01*
X0050538Y0033578D01*
X0051522Y0032594D01*
X0051522Y0031610D01*
X0050538Y0030626D01*
X0048570Y0030626D02*
X0047586Y0029641D01*
X0047586Y0028657D01*
X0048570Y0027673D01*
X0050538Y0027673D01*
X0047405Y0023078D02*
X0045437Y0023078D01*
X0046421Y0023078D02*
X0046421Y0017173D01*
X0045437Y0017173D02*
X0047405Y0017173D01*
X0042928Y0020126D02*
X0041944Y0019141D01*
X0038992Y0019141D01*
X0038992Y0017173D02*
X0038992Y0023078D01*
X0041944Y0023078D01*
X0042928Y0022094D01*
X0042928Y0020126D01*
X0041140Y0027673D02*
X0045077Y0031610D01*
X0045077Y0032594D01*
X0044093Y0033578D01*
X0042124Y0033578D01*
X0041140Y0032594D01*
X0041140Y0027673D02*
X0045077Y0027673D01*
X0057254Y0012578D02*
X0060206Y0012578D01*
X0061190Y0011594D01*
X0061190Y0009626D01*
X0060206Y0008641D01*
X0057254Y0008641D01*
X0057254Y0006673D02*
X0057254Y0012578D01*
X0055999Y0132173D02*
X0055999Y0138078D01*
X0054031Y0138078D02*
X0057968Y0138078D01*
X0051522Y0137094D02*
X0051522Y0133157D01*
X0050538Y0132173D01*
X0047586Y0132173D01*
X0047586Y0138078D01*
X0050538Y0138078D01*
X0051522Y0137094D01*
X0045077Y0138078D02*
X0041140Y0138078D01*
X0041140Y0132173D01*
X0045077Y0132173D01*
X0043108Y0135126D02*
X0041140Y0135126D01*
X0038631Y0137094D02*
X0037647Y0138078D01*
X0035679Y0138078D01*
X0034695Y0137094D01*
X0034695Y0133157D01*
X0035679Y0132173D01*
X0037647Y0132173D01*
X0038631Y0133157D01*
D11*
X0034634Y0089257D03*
X0034634Y0086698D03*
X0034634Y0084139D03*
X0034634Y0081580D03*
X0034634Y0079021D03*
X0034634Y0076462D03*
X0034634Y0073903D03*
X0034634Y0071344D03*
X0034634Y0068785D03*
X0034634Y0066225D03*
X0034634Y0063666D03*
X0034634Y0061107D03*
X0034634Y0058548D03*
X0034634Y0055989D03*
X0059437Y0055989D03*
X0059437Y0058548D03*
X0059437Y0061107D03*
X0059437Y0063666D03*
X0059437Y0066225D03*
X0059437Y0068785D03*
X0059437Y0071344D03*
X0059437Y0073903D03*
X0059437Y0076462D03*
X0059437Y0079021D03*
X0059437Y0081580D03*
X0059437Y0084139D03*
X0059437Y0086698D03*
X0059437Y0089257D03*
D12*
X0006536Y0007623D03*
X0006536Y0017623D03*
X0006536Y0027623D03*
X0006536Y0037623D03*
X0006536Y0047623D03*
X0006536Y0057623D03*
X0006536Y0067623D03*
X0006536Y0077623D03*
X0006536Y0087623D03*
X0006536Y0097623D03*
X0006536Y0107623D03*
X0006536Y0117623D03*
X0006536Y0127623D03*
X0006536Y0137623D03*
X0086536Y0137623D03*
X0086536Y0127623D03*
X0086536Y0117623D03*
X0086536Y0107623D03*
X0086536Y0097623D03*
X0086536Y0087623D03*
X0086536Y0077623D03*
X0086536Y0067623D03*
X0086536Y0057623D03*
X0086536Y0047623D03*
X0086536Y0037623D03*
X0086536Y0027623D03*
X0086536Y0017623D03*
X0086536Y0007623D03*
M02*
