G75*
%MOIN*%
%OFA0B0*%
%FSLAX25Y25*%
%IPPOS*%
%LPD*%
%AMOC8*
5,1,8,0,0,1.08239X$1,22.5*
%
%ADD10C,0.08200*%
%ADD11R,0.06706X0.05918*%
%ADD12C,0.04762*%
D10*
X0009250Y0011500D03*
X0009250Y0021500D03*
X0009250Y0031500D03*
X0009250Y0041500D03*
X0009250Y0051500D03*
X0009250Y0061500D03*
X0009250Y0071500D03*
X0009250Y0081500D03*
X0009250Y0091500D03*
X0009250Y0101500D03*
X0009250Y0111500D03*
X0009250Y0121500D03*
X0009250Y0131500D03*
X0009250Y0141500D03*
X0009250Y0151500D03*
X0009250Y0161500D03*
X0009250Y0171500D03*
X0009250Y0181500D03*
X0009250Y0191500D03*
X0099000Y0191500D03*
X0099000Y0181500D03*
X0099000Y0171500D03*
X0099000Y0161500D03*
X0099000Y0151500D03*
X0099000Y0141500D03*
X0099000Y0131500D03*
X0099000Y0121500D03*
X0099000Y0111500D03*
X0099000Y0101500D03*
X0099000Y0091500D03*
X0099000Y0081500D03*
X0099000Y0071500D03*
X0099000Y0061500D03*
X0099000Y0051500D03*
X0099000Y0041500D03*
X0099000Y0031500D03*
X0099000Y0021500D03*
X0099000Y0011500D03*
D11*
X0056000Y0086010D03*
X0056000Y0093490D03*
X0056000Y0114760D03*
X0056000Y0122240D03*
D12*
X0048500Y0122250D03*
X0048500Y0086000D03*
M02*
