%
M48
M72
T01C0.0236
T02C0.0400
%
T01
X4850Y8600
X4850Y12225
T02
X925Y1150
X925Y2150
X925Y3150
X925Y4150
X925Y5150
X925Y6150
X925Y7150
X925Y8150
X925Y9150
X925Y10150
X925Y11150
X925Y12150
X925Y13150
X925Y14150
X925Y15150
X925Y16150
X925Y17150
X925Y18150
X925Y19150
X9900Y19150
X9900Y18150
X9900Y17150
X9900Y16150
X9900Y15150
X9900Y14150
X9900Y13150
X9900Y12150
X9900Y11150
X9900Y10150
X9900Y9150
X9900Y8150
X9900Y7150
X9900Y6150
X9900Y5150
X9900Y4150
X9900Y3150
X9900Y2150
X9900Y1150
M30
